<svg width="40" height="40" viewBox="0 0 40 40" fill="none" xmlns="http://www.w3.org/2000/svg">
<path d="M8.33337 8.33325H30C31.3261 8.33325 32.5979 8.86004 33.5356 9.79772C34.4733 10.7354 35 12.0072 35 13.3333V28.3333C35 29.6593 34.4733 30.9311 33.5356 31.8688C32.5979 32.8065 31.3261 33.3333 30 33.3333H8.33337C7.00729 33.3333 5.73552 32.8065 4.79784 31.8688C3.86016 30.9311 3.33337 29.6593 3.33337 28.3333V13.3333C3.33337 12.0072 3.86016 10.7354 4.79784 9.79772C5.73552 8.86004 7.00729 8.33325 8.33337 8.33325ZM8.33337 9.99992C7.50004 9.99992 6.76671 10.2833 6.20004 10.7833L19.1667 19.1666L32.1334 10.7833C31.5667 10.2833 30.8334 9.99992 30 9.99992H8.33337ZM19.1667 21.1833L5.21671 12.1333C5.08337 12.4999 5.00004 12.9166 5.00004 13.3333V28.3333C5.00004 29.2173 5.35123 30.0652 5.97635 30.6903C6.60147 31.3154 7.44932 31.6666 8.33337 31.6666H30C30.8841 31.6666 31.7319 31.3154 32.3571 30.6903C32.9822 30.0652 33.3334 29.2173 33.3334 28.3333V13.3333C33.3334 12.9166 33.25 12.4999 33.1167 12.1333L19.1667 21.1833Z" fill="white"/>
</svg>
